<svg width="32" height="32" viewBox="0 0 32 32" fill="none" xmlns="http://www.w3.org/2000/svg">
  <rect width="32" height="32" rx="4" fill="#0a0a0a"/>
  <path d="M8 22V10H12.5C13.7 10 14.6667 10.3 15.4 10.9C16.1333 11.5 16.5 12.3333 16.5 13.4C16.5 14.0667 16.3333 14.65 16 15.15C15.6667 15.6333 15.2167 16 14.65 16.25C15.35 16.4333 15.9167 16.8 16.35 17.35C16.8 17.8833 17.025 18.5333 17.025 19.3C17.025 20.4333 16.6333 21.3167 15.85 21.95C15.0833 22.5833 14.0667 22.9 12.8 22.9L8 22ZM10.5 15.5H12.3C12.9667 15.5 13.4667 15.3333 13.8 15C14.15 14.65 14.325 14.1833 14.325 13.6C14.325 13.0167 14.15 12.5667 13.8 12.25C13.4667 11.9167 12.9667 11.75 12.3 11.75H10.5V15.5ZM10.5 21.15H12.6C13.3333 21.15 13.8917 20.9667 14.275 20.6C14.675 20.2167 14.875 19.7 14.875 19.05C14.875 18.4 14.675 17.8917 14.275 17.525C13.8917 17.1417 13.3333 16.95 12.6 16.95H10.5V21.15ZM24 22.9C22.6 22.9 21.4333 22.4333 20.5 21.5C19.5667 20.5667 19.1 19.4 19.1 18C19.1 16.6 19.5667 15.4333 20.5 14.5C21.4333 13.5667 22.6 13.1 24 13.1C24.7667 13.1 25.4667 13.2833 26.1 13.65C26.7333 14 27.2333 14.4833 27.6 15.1L25.85 16.05C25.6333 15.6833 25.35 15.4083 25 15.225C24.65 15.025 24.2667 14.925 23.85 14.925C23.0833 14.925 22.45 15.175 21.95 15.675C21.45 16.175 21.2 16.8167 21.2 17.6C21.2 18.3833 21.45 19.025 21.95 19.525C22.45 20.025 23.0833 20.275 23.85 20.275C24.2667 20.275 24.65 20.1833 25 20C25.35 19.8 25.6333 19.5167 25.85 19.15L27.6 20.1C27.2333 20.7167 26.7333 21.2083 26.1 21.575C25.4667 21.925 24.7667 22.1 24 22.1V22.9Z" fill="#ededed"/>
</svg>